# xmcd
#
# Track frame offsets: 
#        150
#        14545
#        29870
#        44578
#        59255
#        74053
#        88285
#        102700
#        116805
#        131695
#        148558
#        164733
#        180073
#        195549
#        211795
#        226150
#        240226
#        255159
#        269478
#        283282
#        300429
#        316258
#        332698
#
# Disc length: 4645 seconds
#
# Revision: 0
# Processed by: cddbd v1.5.2PL0 Copyright (c) Steve Scherf et al.
# Submitted via: ExactAudioCopy v0.99pb4
#
DISCID=59122317
DTITLE=Louis ARMSTRONG - New Orleans in Chicago
DYEAR=1931
DGENRE=Blues
TTITLE0=I Surrender Dear
TTITLE1=When It's Sleepy Time Down South
TTITLE2=Blue Again
TTITLE3=Little Joe
TTITLE4=You Rascal You (I'll Be Glad When You're Dead)
TTITLE5=Them There Eyes
TTITLE6=When Your Lover Has Gone
TTITLE7=Lazy River
TTITLE8=Chinatown My Chinatown
TTITLE9=Wrap You Troubles In Dreams
TTITLE10=Stardust
TTITLE11=You Can Depend On Me
TTITLE12=Georgia On My Mind
TTITLE13=The Lonesome Road
TTITLE14=I Got Rhythm
TTITLE15=Between The Devil And The Deep Blue Sea
TTITLE16=Kickin' The Gong Around
TTITLE17=Home (When Shadows Fall)
TTITLE18=All Of Me
TTITLE19=Love You Funny Thing
TTITLE20=The New Tiger Rag
TTITLE21=Keepin' Out Of Mischief Now
TTITLE22=Lawd You Made The Night Too Long
EXTD=
EXTT0=
EXTT1=
EXTT2=
EXTT3=
EXTT4=
EXTT5=
EXTT6=
EXTT7=
EXTT8=
EXTT9=
EXTT10=
EXTT11=
EXTT12=
EXTT13=
EXTT14=
EXTT15=
EXTT16=
EXTT17=
EXTT18=
EXTT19=
EXTT20=
EXTT21=
EXTT22=
PLAYORDER=
